<!-- Generated by IcoMoon.io -->
<svg version="1.1" xmlns="http://www.w3.org/2000/svg" width="25" height="25" viewBox="0 0 25 25">
<title>plus</title>
<path d="M24.219 9.375h-8.594v-8.594c0-0.431-0.35-0.781-0.781-0.781h-4.688c-0.431 0-0.781 0.35-0.781 0.781v8.594h-8.594c-0.431 0-0.781 0.35-0.781 0.781v4.688c0 0.431 0.35 0.781 0.781 0.781h8.594v8.594c0 0.431 0.35 0.781 0.781 0.781h4.688c0.431 0 0.781-0.35 0.781-0.781v-8.594h8.594c0.431 0 0.781-0.35 0.781-0.781v-4.688c0-0.431-0.35-0.781-0.781-0.781z"></path>
</svg>
